[Header]
FileType HTR
DataType HTRS
FileVersion 1
NumSegments 28
NumFrames 4
DataFrameRate 24
EulerRotationOrder ZYX
CalibrationUnits mm
RotationUnits Degrees
GlobalAxisofGravity Y
BoneLengthAxis Y
ScaleFactor 1.0
[SegmentNames&Hierarchy]
waist	GLOBAL
chest	waist
head	chest
joint2	chest
right_shoulder1	joint2
right_elbow1	right_shoulder1
right_wrist1	right_elbow1
right_hand1	right_wrist1
right_finger3	right_hand1
right_finger4	right_hand1
right_finger5	right_hand1
joint3	chest
right_shoulder2	joint3
right_elbow2	right_shoulder2
right_wrist2	right_elbow2
right_hand2	right_wrist2
right_finger6	right_hand2
right_finger7	right_hand2
right_finger8	right_hand2
Center_pelvis	waist
left_pelvs	Center_pelvis
left_leg	left_pelvs
left_knee	left_leg
left_foot	left_knee
right_pelvis	Center_pelvis
right_leg	right_pelvis
right_knee	right_leg
right_foot	right_knee
[BasePosition]
waist	0	0	0	179.9999991	0	91.33221985	1
chest	0	0	0	-2.307808268e-010	-1.984983424e-008	1.332219854	1
head	0	0	0	180	-1.481061187e-024	90	1
joint2	0	0	0	4.615476202e-010	-1.707085745e-006	90	1
right_shoulder1	0	0	0	1.916575325e-008	-1.983803253e-008	-88.02506599	1
right_elbow1	0	0	0	-180	-1.948815659e-008	-12.92899665	1
right_wrist1	0	0	0	3.256551172e-010	1.942478841e-008	1.920938916	1
right_hand1	0	0	0	136.2194085	85.17676588	-133.4832578	1
right_finger3	0	0	0	154.4596717	79.84057755	147.6247455	1
right_finger4	0	0	0	154.4596717	79.84057755	147.6247455	1
right_finger5	0	0	0	154.4596717	79.84057755	147.6247455	1
joint3	0	0	0	-180	-1.89575832e-022	90	1
right_shoulder2	0	0	0	6.774897105e-015	-7.012540931e-015	-88.02506599	1
right_elbow2	0	0	0	-180	-6.888863384e-015	-12.92899665	1
right_wrist2	0	0	0	-1.240805042e-012	-7.401196581e-011	1.920938916	1
right_hand2	0	0	0	136.2194085	85.17676588	-133.4832578	1
right_finger6	0	0	0	154.4596717	79.84057755	147.6247455	1
right_finger7	0	0	0	154.4596717	79.84057755	147.6247455	1
right_finger8	0	0	0	154.4596717	79.84057755	147.6247455	1
Center_pelvis	0	0	0	-180	-8.537716493e-007	89.87586122	1
left_pelvs	0	0	0	0	0	-1.456358634	1
left_leg	0	0	0	179.9999991	0	88.69804733	1
left_knee	0	0	0	-180	-7.863991589e-009	-2.076172838	1
left_foot	0	0	0	179.9999985	-3.055580289e-010	-90.77422016	1
right_pelvis	0	0	0	0	0	-2.39554958	1
right_leg	0	0	0	0	0	-87.75885638	1
right_knee	0	0	0	179.9999991	3.702652968e-022	-2.076172838	1
right_foot	0	0	0	180	-7.405305937e-025	-90.77422016	1
[waist]
19	0	-3.152148962	0	1.823863387	-13.80161572	1.340750337	1.0
20	0	-3.152148962	0	1.823863387	-13.80161572	1.340750337	1.0
21	0	-3.152148962	0	1.823863387	-13.80161572	1.340750337	1.0
22	0	-3.152148962	0	1.823863387	-13.80161572	1.340750337	1.0
[chest]
19	19.71128845	-0.4770816565	-11.57207966	3.862020493	27.77666664	-2.800073385	1.0
20	20.2115612	-0.4854422212	-11.83207321	6.712238789	28.11531639	-2.788740396	1.0
21	20.7370472	-0.4942241609	-12.10516834	9.706122398	28.47103882	-2.776836157	1.0
22	21.27327347	-0.5031856894	-12.38384819	12.76120472	28.83403206	-2.764688492	1.0
[head]
19	20.62318993	0.1433748305	1.492195129	-2.960277557	-11.14927387	-0.892837584	1.0
20	20.62318993	0.1433748305	1.492195129	-5.263030052	-9.211166382	-0.9324911833	1.0
21	20.62318993	0.1433748305	1.492195129	-7.597508907	-7.24635601	-0.9726910591	1.0
22	20.62318993	0.1433748305	1.492195129	-9.853125572	-5.347920895	-1.011533022	1.0
[joint2]
19	-1.815448761	17.00896645	-0.02570469119	-8.335794449	-0.4125927091	-0.6937788725	1.0
20	-1.784083247	17.00974655	-0.01806696877	-4.119259357	-0.3309130967	-0.5564337373	1.0
21	-1.75228548	17.01053619	-0.01032401249	0.1553715318	-0.2481081039	-0.4171963036	1.0
22	-1.721561909	17.01130104	-0.002842625603	4.285598755	-0.1681004167	-0.2826625407	1.0
[right_shoulder1]
19	14.91590023	0.6211000085	0.9477797747	-4.253530979	-21.74689865	-3.665759563	1.0
20	14.91590023	0.6211000085	0.9477797747	-4.134934425	-16.25972176	-5.843841553	1.0
21	14.91590023	0.6211000085	0.9477797747	-4.014703751	-10.69694519	-8.051932335	1.0
22	14.91590023	0.6211000085	0.9477797747	-3.898534536	-5.322086811	-10.18542957	1.0
[right_elbow1]
19	-13.64346027	1.083028078	-0.5017899871	4.706796169	14.70658875	-0.4125910103	1.0
20	-13.64346027	1.083028078	-0.5017899871	4.745819569	16.15410423	-0.2853032351	1.0
21	-13.64346027	1.083028078	-0.5017899871	4.785380363	17.62156296	-0.1562617421	1.0
22	-13.64346027	1.083028078	-0.5017899871	4.823604584	19.03944969	-0.03157947585	1.0
[right_wrist1]
19	-9.988771439	4.720704079	1.033973813	-1.679904103	19.42397118	-9.23274231	1.0
20	-10.2034626	3.787121534	0.9509419203	-0.5931742787	17.83845901	-5.853903294	1.0
21	-10.42111206	2.840676785	0.8667659163	0.5085278153	16.23110199	-2.428510189	1.0
22	-10.63140965	1.926204443	0.7854335904	1.573012829	14.67804337	0.8811667562	1.0
[right_hand1]
19	-7.870647907	-0.6475095749	0.1588415354	14.77019691	26.17854118	19.66566658	1.0
20	-7.870647907	-0.6475095749	0.1588415354	12.9097538	26.88744164	19.15651512	1.0
21	-7.870647907	-0.6475095749	0.1588415354	11.02367783	27.60610771	18.64034653	1.0
22	-7.870647907	-0.6475095749	0.1588415354	9.20131588	28.30049896	18.14161491	1.0
[right_finger3]
19	10.07661057	3.347557783	-1.489186764	-84.28975677	13.1826582	87.76701355	1.0
20	10.07661057	3.347557783	-1.489186764	-84.28975677	13.1826582	87.76701355	1.0
21	10.07661057	3.347557783	-1.489186764	-84.28975677	13.1826582	87.76701355	1.0
22	10.07661057	3.347557783	-1.489186764	-84.28975677	13.1826582	87.76701355	1.0
[right_finger4]
19	-1.201135993	3.376283169	11.27149582	-190.2575378	16.2514534	124.4265747	1.0
20	-1.201135993	3.376283169	11.27149582	-190.2575378	16.2514534	124.4265747	1.0
21	-1.201135993	3.376283169	11.27149582	-190.2575378	16.2514534	124.4265747	1.0
22	-1.201135993	3.376283169	11.27149582	-190.2575378	16.2514534	124.4265747	1.0
[right_finger5]
19	-6.853637218	4.493112087	-5.936321735	34.39846039	4.028532028	79.4876709	1.0
20	-6.853637218	4.493112087	-5.936321735	34.39846039	4.028532028	79.4876709	1.0
21	-6.853637218	4.493112087	-5.936321735	34.39846039	4.028532028	79.4876709	1.0
22	-6.853637218	4.493112087	-5.936321735	34.39846039	4.028532028	79.4876709	1.0
[joint3]
19	-0.5974998474	-16.98654366	0.2708731294	-19.06412125	-0.6206688881	-1.043269753	1.0
20	-0.8072476387	-16.99176025	0.2197982222	-23.28064728	-0.7023829222	-1.180621266	1.0
21	-1.019885182	-16.99704933	0.1680196077	-27.55526733	-0.785222888	-1.319865108	1.0
22	-1.225339651	-17.00215912	0.1179901809	-31.68548012	-0.8652642965	-1.454405189	1.0
[right_shoulder2]
19	-14.91590023	-0.6211000085	-0.9477797747	-1.604774714	-16.80324554	-5.277781487	1.0
20	-14.91590023	-0.6211000085	-0.9477797747	-1.287082791	-19.80730247	-4.232955933	1.0
21	-14.91590023	-0.6211000085	-0.9477797747	-0.9650137424	-22.85274887	-3.173736095	1.0
22	-14.91590023	-0.6211000085	-0.9477797747	-0.653824687	-25.79531479	-2.15029788	1.0
[right_elbow2]
19	11.89224339	-1.747971773	1.683048129	18.27342606	16.67028427	26.74057198	1.0
20	12.23892593	-1.616335034	1.449198246	16.12716484	18.83113861	21.67595291	1.0
21	12.59038448	-1.482884765	1.212126613	13.95133114	21.02176666	16.5415554	1.0
22	12.92997169	-1.353942394	0.9830636382	11.84899807	23.13838768	11.58060551	1.0
[right_wrist2]
19	11.37348366	-5.659013271	-0.5602906942	-7.279149055	15.90322018	-28.27649307	1.0
20	11.37348366	-5.659013271	-0.5602906942	-7.773777962	16.8061657	-29.48766327	1.0
21	11.37348366	-5.659013271	-0.5602906942	-8.275220871	17.7215519	-30.71552277	1.0
22	11.37348366	-5.659013271	-0.5602906942	-8.759725571	18.60601807	-31.90190125	1.0
[right_hand2]
19	8.313048363	0.02588133886	-0.2132965624	20.78530312	21.03731346	30.4417305	1.0
20	8.313048363	0.02588133886	-0.2132965624	21.27507973	20.98906898	29.07409096	1.0
21	8.313048363	0.02588133886	-0.2132965624	21.77160263	20.94016266	27.68760681	1.0
22	8.313048363	0.02588133886	-0.2132965624	22.25135231	20.89290619	26.34796333	1.0
[right_finger6]
19	-10.07661057	-3.347557783	1.489186764	-83.6856308	28.25859642	89.45962524	1.0
20	-10.07661057	-3.347557783	1.489186764	-83.6856308	28.25859642	89.45962524	1.0
21	-10.07661057	-3.347557783	1.489186764	-83.6856308	28.25859642	89.45962524	1.0
22	-10.07661057	-3.347557783	1.489186764	-83.6856308	28.25859642	89.45962524	1.0
[right_finger7]
19	1.201135993	-3.376283169	-11.27149582	-196.815567	9.285179138	95.4122467	1.0
20	1.201135993	-3.376283169	-11.27149582	-196.815567	9.285179138	95.4122467	1.0
21	1.201135993	-3.376283169	-11.27149582	-196.815567	9.285179138	95.4122467	1.0
22	1.201135993	-3.376283169	-11.27149582	-196.815567	9.285179138	95.4122467	1.0
[right_finger8]
19	6.853637218	-4.493112087	5.936321735	33.30503464	-9.988982201	100.1356735	1.0
20	6.853637218	-4.493112087	5.936321735	33.30503464	-9.988982201	100.1356735	1.0
21	6.853637218	-4.493112087	5.936321735	33.30503464	-9.988982201	100.1356735	1.0
22	6.853637218	-4.493112087	5.936321735	33.30503464	-9.988982201	100.1356735	1.0
[Center_pelvis]
19	-5.616972446	-0.3766000271	2.04698658	0	0	0	1.0
20	-5.616972446	-0.3766000271	2.04698658	0	0	0	1.0
21	-5.616972446	-0.3766000271	2.04698658	0	0	0	1.0
22	-5.616972446	-0.3766000271	2.04698658	0	0	0	1.0
[left_pelvs]
19	11.08986378	-0.01586683653	-0.09214995801	13.88177013	-4.280884743	13.20946217	1.0
20	11.08986378	-0.01586683653	-0.09214995801	9.154998779	-3.433412313	10.59442997	1.0
21	11.08986378	-0.01586683653	-0.09214995801	4.363104343	-2.574263096	7.943366051	1.0
22	11.08986378	-0.01586683653	-0.09214995801	-0.2669131458	-1.744137645	5.381860256	1.0
[left_leg]
19	8.450808053e-008	-5.682914734	0.3641465604	6.69741106	1.15292418	-0.3248090744	1.0
20	8.450808053e-008	-5.682914734	0.3641465604	5.371546745	-9.335000038	-0.260507673	1.0
21	8.450808053e-008	-5.682914734	0.3641465604	4.027414799	-19.96742249	-0.1953203678	1.0
22	8.450808053e-008	-5.682914734	0.3641465604	2.728689909	-30.24066544	-0.1323352009	1.0
[left_knee]
19	-10.69747543	0.03457061574	-6.811455844e-009	13.57127762	-46.60054779	-6.813302517	1.0
20	-10.69747543	0.03457061574	-6.811455844e-009	18.22122574	-45.39056015	-6.606020927	1.0
21	-10.69747543	0.03457061574	-6.811455844e-009	22.93523979	-44.16390228	-6.39588356	1.0
22	-10.69747543	0.03457061574	-6.811455844e-009	27.49000549	-42.97868347	-6.192844868	1.0
[left_foot]
19	-14.54718971	-0.01193539705	1.933258442e-009	-25.99562073	12.19358253	-4.553373337	1.0
20	-14.54718971	-0.01193539705	1.933258442e-009	-22.95061111	16.10094261	-5.95450592	1.0
21	-14.54718971	-0.01193539705	1.933258442e-009	-19.86364937	20.0621357	-7.37494278	1.0
22	-14.54718971	-0.01193539705	1.933258442e-009	-16.88097	23.88951492	-8.747394562	1.0
[right_pelvis]
19	-10.5868988	0.4465443194	0.2088862956	-6.146796703	8.619564105e-017	8.895292282	1.0
20	-10.5868988	0.4465443194	0.2088862956	-3.2902143	6.91317719e-017	7.134320736	1.0
21	-10.5868988	0.4465443194	0.2088862956	-0.394274652	5.183280478e-017	5.349087238	1.0
22	-10.5868988	0.4465443194	0.2088862956	2.403835297	3.511822422e-017	3.624161005	1.0
[right_leg]
19	0.09169664979	-5.593489647	0.06310817599	0.4204657972	20.22973061	-8.385578156	1.0
20	0.09169664979	-5.593489647	0.06310817599	0.3372275531	26.01858521	-6.725512981	1.0
21	0.09169664979	-5.593489647	0.06310817599	0.2528425157	31.88719368	-5.042575836	1.0
22	0.09169664979	-5.593489647	0.06310817599	0.1713081002	37.55754852	-3.416490793	1.0
[right_knee]
19	10.69750977	-0.03459574655	-4.718447855e-015	0	-3.149427414	0	1.0
20	10.69750977	-0.03459574655	-4.718447855e-015	0	-3.371487617	0	1.0
21	10.69750977	-0.03459574655	-4.718447855e-015	0	-3.59660697	0	1.0
22	10.69750977	-0.03459574655	-4.718447855e-015	0	-3.814121246	0	1.0
[right_foot]
19	14.54718685	0.01191107463	1.774880243e-010	1.533616662	0	0	1.0
20	14.54718685	0.01191107463	1.774880243e-010	3.516646385	0	0	1.0
21	14.54718685	0.01191107463	1.774880243e-010	5.526997566	0	0	1.0
22	14.54718685	0.01191107463	1.774880243e-010	7.469435692	0	0	1.0
[EndOfFile]
